<svg id="グループ_7" data-name="グループ 7" xmlns="http://www.w3.org/2000/svg" xmlns:xlink="http://www.w3.org/1999/xlink" width="300" height="295.06" viewBox="0 0 300 295.06">
  <defs>
    <clipPath id="clip-path">
      <rect id="長方形_29" data-name="長方形 29" width="300" height="295.06" fill="none"/>
    </clipPath>
  </defs>
  <g id="グループ_6" data-name="グループ 6" clip-path="url(#clip-path)">
    <path id="パス_151" data-name="パス 151" d="M158.691,288.228l-2.854-1.458A209.982,209.982,0,0,1,81.07,222.685c-15.864-21.787-28.435-47.256-37.364-75.7-15.158-48.288-14.58-88-14.548-89.665l.074-3.857,3.476-1.674c1.152-.554,28.529-13.644,58.037-19.859,29.16-6.141,65.894-23.739,67.443-23.864l.5-.04.5.04c1.549.125,38.284,17.723,67.443,23.864,29.508,6.215,56.886,19.3,58.037,19.859l3.476,1.674.074,3.857c.033,1.667.611,41.377-14.548,89.665-8.928,28.443-21.5,53.913-37.363,75.7a209.99,209.99,0,0,1-74.768,64.084Z" transform="translate(-8.691 -2.393)" fill="#060001"/>
    <path id="パス_152" data-name="パス 152" d="M63.553,82.685A295.129,295.129,0,0,0,76.71,155.556c17.388,54.839,48.4,94.947,92.24,119.316,43.834-24.37,74.85-64.477,92.24-119.316a295.152,295.152,0,0,0,13.157-72.871c-9.44-4-26.519-10.612-43.97-14.286-24.276-5.113-55.387-21.991-61.426-22.514-6.039.523-37.186,17.408-61.428,22.514-17.451,3.675-34.529,10.289-43.97,14.286" transform="translate(-18.95 -13.681)" fill="#ca271e"/>
    <path id="パス_153" data-name="パス 153" d="M156.306,295.06,150.9,292.3a215.553,215.553,0,0,1-76.751-65.779c-16.224-22.281-29.071-48.3-38.182-77.324-15.211-48.457-14.85-88.654-14.807-91.362-.019-1.726,0-2.755,0-3l.141-7.32,6.587-3.173c1.181-.568,29.205-13.952,59.317-20.293,22.035-4.641,48.959-16.182,60.456-21.11,5.82-2.5,6.428-2.756,7.695-2.858L156.306,0l.952.076c1.266.1,1.875.363,7.694,2.858,11.5,4.928,38.42,16.469,60.456,21.11,30.142,6.347,58.138,19.726,59.314,20.293l6.59,3.174.14,7.3c0,.2.023,1.249,0,3.02.046,2.735.425,42.84-14.806,91.36-9.113,29.028-21.96,55.043-38.183,77.324A215.557,215.557,0,0,1,161.714,292.3ZM32.393,54.63l-.008.4c0,.213-.018,1.159,0,2.746v.173c-.031,1.631-.585,40.487,14.292,87.878,8.746,27.861,21.041,52.783,36.546,74.076A204.426,204.426,0,0,0,156.005,282.3l.3.152.3-.152a204.436,204.436,0,0,0,72.783-62.389c15.5-21.293,27.8-46.216,36.546-74.077,14.9-47.471,14.323-86.242,14.291-87.869l0-.09v-.089c.021-1.685,0-2.638,0-2.741l-.008-.411-.365-.176c-1.126-.541-27.931-13.351-56.757-19.422-23.124-4.869-50.763-16.718-62.567-21.776-1.578-.677-3.193-1.369-4.222-1.794-1.03.425-2.645,1.117-4.224,1.793-11.8,5.06-39.442,16.908-62.565,21.777C60.718,41.1,33.884,53.913,32.756,54.456ZM156.306,278.075l-2.632-1.4C103.124,249.851,67.588,204.84,48.052,142.9A321.012,321.012,0,0,1,33.834,62.151l-.145-3.8,3.473-1.545c8.322-3.7,30.109-12.825,52.625-17.567,16.932-3.566,37.255-12.243,50.7-17.985,9.574-4.087,13-5.511,15.342-5.709l.473-.04.473.04c2.338.2,5.767,1.621,15.341,5.709,13.449,5.742,33.773,14.419,50.7,17.985,22.49,4.737,44.293,13.863,52.624,17.568l3.475,1.545-.145,3.8A316.158,316.158,0,0,1,264.559,142.9c-19.536,61.943-55.071,106.954-105.621,133.782ZM45.235,65.536a311.323,311.323,0,0,0,13.526,73.982c18.275,57.946,51.085,100.26,97.545,125.819,46.46-25.559,79.27-67.873,97.543-125.819a311.286,311.286,0,0,0,13.526-73.98c-9.642-4.118-28.059-11.35-46.866-15.311-18.012-3.794-38.946-12.732-52.8-18.646-4.4-1.879-9.311-3.976-11.4-4.67-2.094.694-7.006,2.791-11.406,4.67C131.048,37.5,110.113,46.433,92.1,50.227,73.273,54.192,54.869,61.42,45.235,65.536" transform="translate(-6.305)" fill="#060001"/>
    <path id="パス_154" data-name="パス 154" d="M158.691,292.388l-2.855-1.458A209.986,209.986,0,0,1,81.07,226.845c-15.864-21.787-28.436-47.256-37.364-75.7-15.158-48.288-14.581-88-14.549-89.665l.074-3.857,3.476-1.674c1.151-.554,28.529-13.644,58.037-19.859,29.16-6.141,65.894-23.739,67.442-23.864l.5-.04.5.04c1.549.125,38.284,17.723,67.443,23.864,29.509,6.215,56.886,19.3,58.037,19.859l3.476,1.674.074,3.857c.033,1.667.61,41.377-14.548,89.665-8.928,28.443-21.5,53.913-37.364,75.7a209.988,209.988,0,0,1-74.767,64.084ZM41.739,65.609a310.6,310.6,0,0,0,14.053,82.151c19.082,60.5,53.692,104.4,102.9,130.512,49.206-26.115,83.817-70.008,102.9-130.512a310.564,310.564,0,0,0,14.053-82.15c-8.263-3.678-29.6-12.614-51.591-17.244-26.564-5.6-60.815-23.21-65.361-23.594-4.547.385-38.8,18-65.362,23.594C71.3,53.005,49.993,61.933,41.739,65.609" transform="translate(-8.691 -3.633)" fill="#888"/>
    <path id="パス_155" data-name="パス 155" d="M158.691,288.227l-2.855-1.458A209.986,209.986,0,0,1,81.07,222.684c-15.864-21.787-28.436-47.256-37.364-75.7C28.548,98.7,29.125,58.986,29.157,57.32l.074-3.857,3.476-1.674c1.151-.554,28.529-13.644,58.037-19.859C119.9,25.788,156.638,8.19,158.187,8.065l.5-.04.5.04c1.549.125,38.284,17.723,67.443,23.864,29.509,6.215,56.886,19.3,58.037,19.859l3.476,1.674.074,3.857c.033,1.667.61,41.377-14.548,89.665-8.928,28.443-21.5,53.913-37.364,75.7a209.988,209.988,0,0,1-74.767,64.084ZM41.739,61.448A310.6,310.6,0,0,0,55.791,143.6c19.082,60.5,53.692,104.4,102.9,130.512C207.9,248,242.508,204.1,261.589,143.6a310.564,310.564,0,0,0,14.053-82.15c-8.263-3.678-29.6-12.614-51.591-17.244-26.564-5.6-60.815-23.21-65.361-23.594-4.547.385-38.8,18-65.362,23.594C71.3,48.844,49.993,57.772,41.739,61.448" transform="translate(-8.691 -2.393)" fill="#fff"/>
    <path id="パス_156" data-name="パス 156" d="M213.727,274.872c43.834-24.37,74.85-64.477,92.24-119.316a295.152,295.152,0,0,0,13.157-72.871c-9.439-4-26.519-10.612-43.97-14.286-24.275-5.113-55.387-21.991-61.426-22.513Z" transform="translate(-63.727 -13.681)" fill="#060001"/>
    <path id="パス_157" data-name="パス 157" d="M249.045,299.464H95.124L74.068,257.552H270.1Z" transform="translate(-22.085 -76.794)" fill="#060001"/>
    <path id="パス_158" data-name="パス 158" d="M193.578,279.082l-47.426-51.936,56.93-40.42,38.161,53.218-26.676,38.392Z" transform="translate(-43.578 -55.676)" fill="#060001"/>
    <path id="パス_159" data-name="パス 159" d="M103.831,193.908,0,158.2l57.6,81.408L150,270.577Z" transform="translate(0 -47.17)" fill="#060001"/>
    <path id="パス_160" data-name="パス 160" d="M259.9,193.908,363.726,158.2l-57.6,81.408-92.4,30.969Z" transform="translate(-63.727 -47.17)" fill="#060001"/>
    <path id="パス_161" data-name="パス 161" d="M53.775,144.009,6.608,29.115,158.07,161.753v24.178l-104.295-.091Z" transform="translate(-1.97 -8.681)" fill="#060001"/>
    <path id="パス_162" data-name="パス 162" d="M309.33,144.009,356.5,29.115,205.035,161.753v24.178l104.295-.091Z" transform="translate(-61.135 -8.681)" fill="#060001"/>
    <path id="パス_163" data-name="パス 163" d="M369.913,49.116l-79.652,116.9-5.484-35.655Z" transform="translate(-84.912 -14.645)" fill="#ca271e"/>
    <path id="パス_164" data-name="パス 164" d="M21.609,49.116,99.155,163.908l5.484-35.656Z" transform="translate(-6.443 -14.645)" fill="#ca271e"/>
    <path id="パス_165" data-name="パス 165" d="M10,165.2l42.163,15.751,21.647,37.714Z" transform="translate(-2.982 -49.258)" fill="#ca271e"/>
    <path id="パス_166" data-name="パス 166" d="M390.343,165.2,348.18,180.952l-21.647,37.714Z" transform="translate(-97.362 -49.258)" fill="#ca271e"/>
    <path id="パス_167" data-name="パス 167" d="M189.826,217.954H163.758l-67.69-35.687,27.889-41.049,18.28-34.232,4.936-14.949,5.817-2.322,3.308-3.8h9.489l5.266,4.2,5.126,1.216,2.474-1.242,4.6-2.885,6.25,1.425h4.749l5.3-.665,6.677,2.619L217.21,117.4l15.452,29.062,27.216,39.11ZM156.907,206.91l44.9-1.067,31.356-37.317-9.4-17.272L208.049,121.7l-9.538-23.289-.256-.1-3.371.423h-6.519l-3.283-.749L183.4,99.014l-5.978,3-10.909-2.588-4.268-3.409H160.9l-1.892,2.177-3.718,1.484-3.731,11.3-18.807,35.212-8.715,15.115Z" transform="translate(-28.644 -25.616)" fill="#060001"/>
    <path id="パス_168" data-name="パス 168" d="M129.9,160.681l8.561-14.865,18.524-34.687L161.321,98l4.767-1.9,2.6-2.989H174.1l4.767,3.805,8.017,1.9,4.334-2.174,3.033-1.9,4.767,1.088h5.634l4.334-.544,3.466,1.359,11.267,27.578,14.564,26.762,9.271,17.036-37.82,47.027H170.354Z" transform="translate(-38.733 -27.763)" fill="#060001"/>
    <path id="パス_169" data-name="パス 169" d="M241.925,150.985,226.354,121.7,216.094,96.645l-3.466-1.359-4.334.543H202.66l-4.767-1.088-3.034,1.9-4.333,2.175-8.017-1.9-4.767-3.805h-5.417l-2.6,2.99L164.958,98l-4.334,13.126L142.1,145.817l13.333-9.744-5.048,23.115,17.667-22.482,1.514,17.415,9.339-15.832,9.02,33.564L197.5,139.6l10.679,41.438,2.776-33.88,7.249,13.027.575-18.41,14.639,26.6-3.029-27.23Z" transform="translate(-42.37 -27.763)" fill="#fff"/>
    <path id="パス_170" data-name="パス 170" d="M207.767,184.174l-11.006-42.706-9.567,32.217-9.189-34.193-9.551,16.193-1.543-17.749-18.3,23.291,5.255-24.062-14.124,10.322L159.4,110.668l4.4-13.329,4.884-1.95,2.679-3.08h5.871l4.822,3.85,7.695,1.827L193.9,95.9l3.184-2,4.933,1.126h5.535L212,94.47l3.824,1.5,10.353,25.277L243.11,153.1l-12.7-10.846,3.185,28.632-15.013-27.277L218,162l-7.338-13.19Zm-10.93-46.924,10.352,40.169,2.655-32.4L217,157.888l.576-18.429,14.264,25.917-2.873-25.829,10.359,8.845-14.177-26.667L214.96,96.843l-3.109-1.22-4.262.531-5.759-.014L197.291,95.1l-2.837,1.779-4.563,2.294-8.34-1.979-4.711-3.762h-4.963l-2.522,2.9-4.65,1.856-4.29,12.965-17.362,32.512L155.6,134.5l-4.841,22.167L167.786,135l1.486,17.082,9.126-15.471,8.851,32.935Z" transform="translate(-41.665 -27.524)" fill="#060001"/>
    <path id="パス_171" data-name="パス 171" d="M275.419,331.861H205.432v-3.706H134.845v3.706H64.858L83.78,311.9,64.859,291.93h26.53v-3.706h157.5v3.706h26.531L256.5,311.9Zm-64.058-5.929h50.27l-13.3-14.036,13.3-14.037H242.959v-3.706H97.318v3.706H78.646l13.3,14.037-13.3,14.036h50.27v-3.706h82.445Zm46.822-1.483h-45.34v-3.7h-85.41v3.7H82.094l11.9-12.553-11.9-12.554H98.8v-3.706H241.477v3.706h16.706l-11.9,12.554Zm-39.411-5.928H244.4l-6.279-6.625,6.279-6.626h-8.849v-3.705H104.73v3.705H95.88l6.279,6.626-6.279,6.625H121.5v-3.706h97.268Z" transform="translate(-19.339 -85.939)" fill="#231815"/>
    <path id="パス_172" data-name="パス 172" d="M271.455,330.155H211.326V326.45H134.81v3.706H74.682l16.112-17-16.112-17h22.6v-3.706h151.57v3.706h22.6l-16.112,17Zm-52.717-7.411H254.22l-9.088-9.589,9.088-9.59H241.441v-3.706H104.694v3.706H91.917l9.088,9.59-9.088,9.589H127.4v-3.706h91.339Z" transform="translate(-22.268 -87.199)" fill="#fff"/>
    <rect id="長方形_22" data-name="長方形 22" width="144.158" height="26.59" transform="translate(78.721 208.955)" fill="#060001"/>
    <path id="パス_173" data-name="パス 173" d="M134.765,303.009H86.96L99.56,316.3l-12.6,13.3h47.805l-30.116-3.706h30.116Z" transform="translate(-25.929 -90.348)" fill="#060001"/>
    <path id="パス_174" data-name="パス 174" d="M322.464,303.009H274.658v22.884h30.116L274.658,329.6h47.805l-12.6-13.3Z" transform="translate(-81.895 -90.348)" fill="#060001"/>
    <path id="パス_175" data-name="パス 175" d="M131.742,306.044v2.12h-2.014v12.79h-2.15v-12.79h-2.014v-2.12Z" transform="translate(-37.439 -91.253)" fill="#ca271e"/>
    <path id="パス_176" data-name="パス 176" d="M142.3,306.044h5.577v2.12h-3.427v4.271H147.4v2.129h-2.949v4.271h3.427v2.12H142.3Z" transform="translate(-42.43 -91.253)" fill="#fff"/>
    <path id="パス_177" data-name="パス 177" d="M164.475,317.958q0,3.132-3.093,3.139t-3.086-3.139v-9.12q0-3.131,3.086-3.131t3.093,3.131v2.007h-2.15v-2.007q0-1-.935-1.011h-.015q-.927,0-.927,1.011v9.12q0,1.011.935,1.011t.943-1.011v-2.006h2.15Z" transform="translate(-47.199 -91.152)" fill="#fff"/>
    <path id="パス_178" data-name="パス 178" d="M175.577,306.044h2.15v6.391h1.877v-6.391h2.151v14.91h-2.151v-6.391h-1.877v6.391h-2.15Z" transform="translate(-52.352 -91.253)" fill="#fff"/>
    <path id="パス_179" data-name="パス 179" d="M193.184,306.044h2.15l2.037,8.648v-8.648h1.991v14.91h-2.151l-1.961-8.374v8.374h-2.067Z" transform="translate(-57.601 -91.253)" fill="#fff"/>
    <path id="パス_180" data-name="パス 180" d="M216.751,317.958q0,3.132-3.093,3.139t-3.085-3.139v-9.12q0-3.131,3.085-3.131t3.093,3.131Zm-2.15-9.12q0-1-.936-1.01h-.015q-.926,0-.927,1.01v9.12q0,1.011.935,1.011t.943-1.011Z" transform="translate(-62.786 -91.152)" fill="#fff"/>
    <path id="パス_181" data-name="パス 181" d="M227.963,306.044h3.313q2.866.007,2.865,3.139v2.242a2.143,2.143,0,0,1-1.177,2.075,2.146,2.146,0,0,1,1.177,2.075v2.25q0,3.122-3,3.131h-3.176Zm2.15,2.121v4.271h.677a2.091,2.091,0,0,0,.616-.061.924.924,0,0,0,.585-.95v-2.242q0-1.018-.934-1.018Zm0,6.4v4.271h.943q.934,0,.934-1.011v-2.25a.909.909,0,0,0-.585-.942,1.859,1.859,0,0,0-.616-.068Z" transform="translate(-67.971 -91.253)" fill="#ca271e"/>
    <path id="パス_182" data-name="パス 182" d="M245.244,320.954v-14.91h2.15v12.79h3.427v2.12Z" transform="translate(-73.124 -91.253)" fill="#fff"/>
    <path id="パス_183" data-name="パス 183" d="M266.982,317.958q0,3.132-3.093,3.139t-3.085-3.139v-9.12q0-3.131,3.085-3.131t3.093,3.131Zm-2.15-9.12q0-1-.935-1.01h-.015q-.926,0-.926,1.01v9.12q0,1.011.934,1.011t.943-1.011Z" transform="translate(-77.764 -91.152)" fill="#fff"/>
    <path id="パス_184" data-name="パス 184" d="M284.155,317.958q0,3.132-3.093,3.139t-3.085-3.139v-9.12q0-3.131,3.085-3.131t3.093,3.131Zm-2.15-9.12q0-1-.935-1.01h-.015q-.926,0-.926,1.01v9.12q0,1.011.934,1.011t.943-1.011Z" transform="translate(-82.884 -91.152)" fill="#fff"/>
    <path id="パス_185" data-name="パス 185" d="M295.367,306.044h3.313q2.866.006,2.866,3.138v8.641q0,3.124-3,3.132h-3.177Zm2.15,2.12v10.669h.943q.934,0,.935-1.011v-8.641q0-1.018-.935-1.018Z" transform="translate(-88.069 -91.253)" fill="#fff"/>
    <path id="パス_186" data-name="パス 186" d="M21.811,264.585c-6.711,0-10.407-3.393-10.407-9.553V234.393c0-6.149,3.7-9.534,10.407-9.534s10.425,3.386,10.425,9.534v6.991H22.029v6.658H32.236v6.99c0,6.146-3.7,9.539-10.421,9.553h0Z" transform="translate(-3.4 -67.046)" fill="#888"/>
    <path id="パス_187" data-name="パス 187" d="M20.917,226.069q8.319,0,8.319,7.429v4.885H22.821V233.5a1.7,1.7,0,0,0-1.887-1.943H20.9q-1.871,0-1.868,1.943v20.639a1.693,1.693,0,0,0,1.887,1.943,1.7,1.7,0,0,0,1.9-1.943v-4.884h6.414v4.884q0,7.43-8.319,7.448-8.3,0-8.3-7.448V233.5q0-7.429,8.3-7.429m0-4.211c-7.835,0-12.512,4.351-12.512,11.64v20.639c0,7.3,4.677,11.659,12.512,11.659,7.85-.017,12.53-4.375,12.53-11.659v-9.1H23.24v-2.447H33.446v-9.1c0-7.289-4.684-11.64-12.53-11.64" transform="translate(-2.506 -66.151)" fill="#040000"/>
    <path id="パス_188" data-name="パス 188" d="M41.4,264.261V225.618H52.023v28.946h8.685v9.7Z" transform="translate(-12.343 -67.272)" fill="#888"/>
    <path id="パス_189" data-name="パス 189" d="M49.022,226.829v28.945h8.685v5.487h-15.1V226.829Zm4.211-4.211H38.4v42.854H61.918V251.563H53.233V222.618Z" transform="translate(-11.449 -66.378)" fill="#040000"/>
    <rect id="長方形_23" data-name="長方形 23" width="10.623" height="38.643" transform="translate(47.525 158.346)" fill="#888"/>
    <path id="パス_190" data-name="パス 190" d="M75.338,261.261H68.926V226.829h6.412Zm4.211-38.643H64.715v42.854H79.549V222.618Z" transform="translate(-19.296 -66.378)" fill="#040000"/>
    <path id="パス_191" data-name="パス 191" d="M102.553,264.261v-.019l0,.019h-7.82l-.155-.63v.63H84.122V225.618H94.188l4.372,16.608,4.316-16.608h10.069v38.643Z" transform="translate(-25.082 -67.272)" fill="#888"/>
    <path id="パス_192" data-name="パス 192" d="M109.946,226.829v34.432h-6.182V245.42L99.99,261.261H95.484l-3.912-15.944v15.944H85.333V226.829h6.338l6.008,22.823,5.933-22.823Zm4.211-4.211h-13.8l-.819,3.151-1.882,7.243-1.91-7.255-.826-3.139H81.122v42.854h33.035V222.618Z" transform="translate(-24.188 -66.378)" fill="#040000"/>
    <path id="パス_193" data-name="パス 193" d="M126.327,264.261V225.618h10.984c6.352.014,9.847,3.406,9.847,9.553v5.074a7.539,7.539,0,0,1-1.386,4.7,7.536,7.536,0,0,1,1.386,4.7v5.09c0,6.134-3.612,9.521-10.17,9.536H126.327Z" transform="translate(-37.667 -67.272)" fill="#888"/>
    <path id="パス_194" data-name="パス 194" d="M136.416,226.829q7.744.018,7.741,7.446v5.074q0,3.508-2.579,4.695,2.58,1.186,2.579,4.7v5.091q0,7.411-8.069,7.43h-8.55V226.829h8.878m-2.465,14.463h1.232a5.358,5.358,0,0,0,1.349-.1,1.757,1.757,0,0,0,1.213-1.84v-5.074q0-1.961-1.889-1.961h-1.905v8.978m0,14.482h1.905a1.694,1.694,0,0,0,1.889-1.943V248.74a1.731,1.731,0,0,0-1.213-1.824,4.793,4.793,0,0,0-1.349-.121h-1.232v8.979m2.469-33.156H123.327v42.854h12.761c7.693-.018,12.28-4.37,12.28-11.641V248.74a10.275,10.275,0,0,0-1.02-4.7,10.271,10.271,0,0,0,1.02-4.695v-5.074c0-7.283-4.464-11.641-11.943-11.657Z" transform="translate(-36.772 -66.378)" fill="#040000"/>
    <path id="パス_195" data-name="パス 195" d="M156.319,264.261V225.618H175.63v9.7h-8.685v4.767h7.472V249.8h-7.472v4.768h8.685v9.7Z" transform="translate(-46.61 -67.272)" fill="#888"/>
    <path id="パス_196" data-name="パス 196" d="M172.63,226.829v5.486h-8.685v8.978h7.472v5.5h-7.472v8.979h8.685v5.487h-15.1V226.829Zm4.211-4.211H153.319v42.854h23.522V251.563h-8.685v-.557h7.472V237.081h-7.472v-.556h8.685V222.618Z" transform="translate(-45.715 -66.378)" fill="#040000"/>
    <path id="パス_197" data-name="パス 197" d="M195.28,264.261l-1.06-3.575v3.575H183.6V225.618h10.523c6.352.014,9.847,3.406,9.847,9.553v5.074a7.93,7.93,0,0,1-3.628,7.122l6.585,16.9Z" transform="translate(-54.742 -67.272)" fill="#888"/>
    <path id="パス_198" data-name="パス 198" d="M193.223,226.829q7.742.018,7.742,7.446v5.074q0,4.678-4.2,6.053l6.181,15.858h-6.99l-4.392-14.809h-.346v14.809h-6.414V226.829h8.417m-2,14.463h.771a5.329,5.329,0,0,0,1.348-.1,1.756,1.756,0,0,0,1.213-1.84v-5.074q0-1.961-1.887-1.961H191.22v8.978m2.008-18.674H180.6v42.854h28.513l-2.237-5.74-4.891-12.55a10.264,10.264,0,0,0,3.2-7.832v-5.074c0-7.283-4.465-11.641-11.943-11.657Z" transform="translate(-53.848 -66.378)" fill="#040000"/>
    <path id="パス_199" data-name="パス 199" d="M237.647,264.585c-6.721-.014-10.422-3.407-10.422-9.553v-6.99h7.062q-.377-.26-.817-.543c-4.141-2.631-6.245-5.978-6.245-9.941v-3.165c0-6.149,3.7-9.534,10.406-9.534s10.426,3.386,10.426,9.534v6.991h-5.584c3.7,2.556,5.584,5.711,5.584,9.383v4.265c0,6.16-3.7,9.553-10.407,9.553Z" transform="translate(-67.751 -67.046)" fill="#888"/>
    <path id="パス_200" data-name="パス 200" d="M236.737,226.069q8.321,0,8.32,7.429v4.885h-6.413V233.5a1.7,1.7,0,0,0-1.887-1.943h-.038q-1.869,0-1.868,1.943v3.061q0,2.1,4.929,5.263,5.278,3.354,5.277,8.049v4.265q0,7.446-8.3,7.448-8.32-.018-8.32-7.448v-4.884h6.414v4.884a1.9,1.9,0,1,0,3.793,0v-3.852q0-2.287-4.93-5.452-5.277-3.353-5.277-8.169V233.5q0-7.429,8.3-7.429m0-4.211c-7.835,0-12.512,4.351-12.512,11.64v3.165a12.479,12.479,0,0,0,3.245,8.378h-3.245v9.1c0,7.284,4.681,11.642,12.522,11.659,7.843,0,12.52-4.358,12.52-11.659v-4.265a12.09,12.09,0,0,0-2.44-7.277h2.44v-9.1c0-7.289-4.684-11.64-12.53-11.64" transform="translate(-66.857 -66.151)" fill="#040000"/>
    <path id="パス_201" data-name="パス 201" d="M267.624,264.811c-6.711,0-10.407-3.393-10.407-9.553V225.618h20.832v29.641c0,6.146-3.7,9.539-10.421,9.553h0Z" transform="translate(-76.694 -67.272)" fill="#888"/>
    <path id="パス_202" data-name="パス 202" d="M275.049,226.829v27.534q0,7.43-8.319,7.448-8.3,0-8.3-7.448V226.829h6.412v27.534a1.9,1.9,0,1,0,3.795,0V226.829h6.414m4.211-4.211H254.217v31.745c0,7.3,4.677,11.659,12.512,11.659,7.849-.017,12.53-4.375,12.53-11.659V222.618Z" transform="translate(-75.8 -66.378)" fill="#040000"/>
    <path id="パス_203" data-name="パス 203" d="M306.186,264.261v-.019l0,.019h-7.82l-.155-.63v.63H287.756V225.618h10.066l4.372,16.608,4.316-16.608H316.58v38.643Z" transform="translate(-85.8 -67.272)" fill="#888"/>
    <path id="パス_204" data-name="パス 204" d="M313.58,226.829v34.432H307.4V245.42l-3.773,15.841h-4.506l-3.912-15.944v15.944h-6.239V226.829H295.3l6.008,22.823,5.933-22.823Zm4.211-4.211h-13.8l-.819,3.151-1.882,7.243-1.91-7.255-.826-3.139H284.756v42.854h33.035V222.618Z" transform="translate(-84.905 -66.378)" fill="#040000"/>
    <path id="パス_205" data-name="パス 205" d="M348.391,264.261v-.019l0,.019h-7.82l-.154-.627v.627H329.961V225.618h10.066l4.372,16.608,4.316-16.608h10.07v38.643Z" transform="translate(-98.384 -67.272)" fill="#888"/>
    <path id="パス_206" data-name="パス 206" d="M355.785,226.829v34.432H349.6V245.42l-3.773,15.841h-4.506l-3.911-15.944v15.944h-6.239V226.829h6.337l6.008,22.823,5.932-22.823ZM360,222.618h-13.8l-.82,3.151-1.882,7.243-1.909-7.255-.827-3.139H326.961v42.854H360V222.618Z" transform="translate(-97.489 -66.378)" fill="#040000"/>
    <rect id="長方形_24" data-name="長方形 24" width="10.624" height="38.643" transform="translate(261.295 158.346)" fill="#888"/>
    <path id="パス_207" data-name="パス 207" d="M379.927,261.261h-6.413V226.829h6.413Zm4.211-38.643H369.3v42.854h14.835V222.618Z" transform="translate(-110.115 -66.378)" fill="#040000"/>
    <path id="パス_208" data-name="パス 208" d="M391.62,264.261V235.315h-5.1v-9.7h20.831v9.7h-5.1v28.946Z" transform="translate(-115.247 -67.272)" fill="#888"/>
    <path id="パス_209" data-name="パス 209" d="M404.348,226.829v5.486h-5.1v28.946h-6.414V232.315h-5.1v-5.486Zm4.211-4.211H383.516v13.908h5.1v28.946h14.836V236.526h5.1V222.618Z" transform="translate(-114.352 -66.378)" fill="#040000"/>
    <path id="パス_210" data-name="パス 210" d="M31.025,255.926q0,7.431-8.32,7.448-8.3,0-8.3-7.448V235.287q0-7.428,8.3-7.428,8.32,0,8.32,7.428v4.885H24.61v-4.885a1.7,1.7,0,0,0-1.886-1.943h-.039q-1.869,0-1.868,1.943v20.639a1.693,1.693,0,0,0,1.887,1.944,1.7,1.7,0,0,0,1.9-1.944v-4.884h6.415Z" transform="translate(-4.295 -67.94)" fill="#888"/>
    <path id="パス_211" data-name="パス 211" d="M44.4,263.05V228.618h6.414v28.946H59.5v5.486Z" transform="translate(-13.238 -68.167)" fill="#888"/>
    <rect id="長方形_25" data-name="長方形 25" width="6.412" height="34.432" transform="translate(49.63 160.451)" fill="#888"/>
    <path id="パス_212" data-name="パス 212" d="M99.468,251.441l5.932-22.823h6.335V263.05h-6.182v-15.84l-3.773,15.84H97.273l-3.911-15.944V263.05h-6.24V228.618h6.338Z" transform="translate(-25.977 -68.167)" fill="#888"/>
    <path id="パス_213" data-name="パス 213" d="M129.327,228.618h8.879q7.743.016,7.741,7.446v5.074q0,3.508-2.579,4.695,2.58,1.186,2.579,4.7v5.09q0,7.412-8.069,7.43h-8.551Zm6.414,5.486v8.978h1.232a5.4,5.4,0,0,0,1.349-.1,1.759,1.759,0,0,0,1.213-1.84v-5.074q0-1.961-1.889-1.961Zm0,14.481v8.979h1.905a1.694,1.694,0,0,0,1.889-1.944v-5.09a1.731,1.731,0,0,0-1.213-1.824,4.8,4.8,0,0,0-1.349-.121Z" transform="translate(-38.561 -68.167)" fill="#888"/>
    <path id="パス_214" data-name="パス 214" d="M159.319,228.618h15.1V234.1h-8.685v8.978h7.472v5.5h-7.472v8.979h8.685v5.487h-15.1Z" transform="translate(-47.504 -68.167)" fill="#888"/>
    <path id="パス_215" data-name="パス 215" d="M186.594,228.618h8.417q7.742.016,7.743,7.447v5.074q0,4.678-4.2,6.053l6.181,15.858h-6.99l-4.391-14.808h-.346V263.05h-6.414Zm6.414,5.486v8.978h.771a5.31,5.31,0,0,0,1.347-.1,1.756,1.756,0,0,0,1.213-1.84v-5.074q0-1.961-1.887-1.962Z" transform="translate(-55.636 -68.167)" fill="#888"/>
    <path id="パス_216" data-name="パス 216" d="M230.225,235.287q0-7.429,8.3-7.429,8.321,0,8.32,7.429v4.885h-6.414v-4.885a1.7,1.7,0,0,0-1.887-1.943h-.038q-1.869,0-1.868,1.943v3.061q0,2.1,4.929,5.263,5.278,3.354,5.278,8.049v4.265q0,7.446-8.3,7.448-8.32-.018-8.32-7.448v-4.884h6.414v4.884a1.9,1.9,0,1,0,3.793,0v-3.852q0-2.287-4.929-5.452-5.278-3.353-5.278-8.169Z" transform="translate(-68.646 -67.94)" fill="#888"/>
    <path id="パス_217" data-name="パス 217" d="M276.838,256.152q0,7.431-8.319,7.448-8.3,0-8.3-7.448V228.618h6.412v27.534a1.9,1.9,0,1,0,3.795,0V228.618h6.414Z" transform="translate(-77.589 -68.167)" fill="#888"/>
    <path id="パス_218" data-name="パス 218" d="M303.1,251.441l5.932-22.823h6.335V263.05h-6.182v-15.84l-3.773,15.84h-4.507L297,247.105V263.05h-6.24V228.618h6.338Z" transform="translate(-86.694 -68.167)" fill="#888"/>
    <path id="パス_219" data-name="パス 219" d="M345.306,251.441l5.932-22.823h6.335V263.05h-6.182v-15.84l-3.773,15.84h-4.506L339.2,247.105V263.05h-6.24V228.618H339.3Z" transform="translate(-99.278 -68.167)" fill="#888"/>
    <rect id="長方形_26" data-name="長方形 26" width="6.413" height="34.432" transform="translate(263.4 160.451)" fill="#888"/>
    <path id="パス_220" data-name="パス 220" d="M406.137,228.618V234.1h-5.1V263.05H394.62V234.1h-5.1v-5.486Z" transform="translate(-116.142 -68.167)" fill="#888"/>
    <path id="パス_221" data-name="パス 221" d="M31.025,253.047q0,7.429-8.32,7.446-8.3,0-8.3-7.446V232.408q0-7.429,8.3-7.429,8.32,0,8.32,7.429v4.885H24.61v-4.885a1.7,1.7,0,0,0-1.886-1.943h-.039q-1.869,0-1.868,1.943v20.639a1.693,1.693,0,0,0,1.887,1.943,1.7,1.7,0,0,0,1.9-1.943v-4.884h6.415Z" transform="translate(-4.295 -67.082)" fill="#fff"/>
    <path id="パス_222" data-name="パス 222" d="M44.4,260.169V225.737h6.414v28.946H59.5v5.487Z" transform="translate(-13.238 -67.308)" fill="#fff"/>
    <rect id="長方形_27" data-name="長方形 27" width="6.412" height="34.433" transform="translate(49.63 158.429)" fill="#fff"/>
    <path id="パス_223" data-name="パス 223" d="M99.468,248.56l5.932-22.824h6.335v34.433h-6.182v-15.84l-3.773,15.84H97.273l-3.911-15.944v15.944h-6.24V225.737h6.338Z" transform="translate(-25.977 -67.308)" fill="#fff"/>
    <path id="パス_224" data-name="パス 224" d="M129.327,225.737h8.879q7.743.017,7.741,7.447v5.074q0,3.507-2.579,4.694,2.58,1.187,2.579,4.7v5.09q0,7.412-8.069,7.43h-8.551Zm6.414,5.486V240.2h1.232a5.4,5.4,0,0,0,1.349-.1,1.759,1.759,0,0,0,1.213-1.84v-5.074q0-1.961-1.889-1.961Zm0,14.481v8.978h1.905a1.694,1.694,0,0,0,1.889-1.943v-5.09a1.73,1.73,0,0,0-1.213-1.824,4.8,4.8,0,0,0-1.349-.121Z" transform="translate(-38.561 -67.308)" fill="#fff"/>
    <path id="パス_225" data-name="パス 225" d="M159.319,225.737h15.1v5.486h-8.685V240.2h7.472v5.5h-7.472v8.978h8.685v5.488h-15.1Z" transform="translate(-47.504 -67.308)" fill="#fff"/>
    <path id="パス_226" data-name="パス 226" d="M186.594,225.738h8.417q7.742.017,7.743,7.447v5.074q0,4.678-4.2,6.053l6.181,15.858h-6.99l-4.391-14.808h-.346V260.17h-6.414Zm6.414,5.486V240.2h.771a5.353,5.353,0,0,0,1.347-.1,1.758,1.758,0,0,0,1.213-1.84v-5.074q0-1.961-1.887-1.961Z" transform="translate(-55.636 -67.308)" fill="#fff"/>
    <path id="パス_227" data-name="パス 227" d="M230.225,232.407q0-7.429,8.3-7.429,8.321,0,8.32,7.429v4.885h-6.414v-4.885a1.7,1.7,0,0,0-1.887-1.943h-.038q-1.869,0-1.868,1.943v3.061q0,2.1,4.929,5.263,5.278,3.354,5.278,8.049v4.265q0,7.446-8.3,7.447-8.32-.017-8.32-7.447v-4.884h6.414v4.884a1.9,1.9,0,1,0,3.793,0v-3.853q0-2.286-4.929-5.452-5.278-3.353-5.278-8.169Z" transform="translate(-68.646 -67.081)" fill="#fff"/>
    <path id="パス_228" data-name="パス 228" d="M276.838,253.273q0,7.429-8.319,7.446-8.3,0-8.3-7.446V225.738h6.412v27.535a1.9,1.9,0,1,0,3.795,0V225.738h6.414Z" transform="translate(-77.589 -67.308)" fill="#fff"/>
    <path id="パス_229" data-name="パス 229" d="M303.1,248.56l5.932-22.824h6.335v34.433h-6.182v-15.84l-3.773,15.84h-4.507L297,244.225v15.944h-6.24V225.737h6.338Z" transform="translate(-86.694 -67.308)" fill="#fff"/>
    <path id="パス_230" data-name="パス 230" d="M345.306,248.56l5.932-22.824h6.335v34.433h-6.182v-15.84l-3.773,15.84h-4.506L339.2,244.225v15.944h-6.24V225.737H339.3Z" transform="translate(-99.278 -67.308)" fill="#fff"/>
    <rect id="長方形_28" data-name="長方形 28" width="6.413" height="34.433" transform="translate(263.4 158.429)" fill="#fff"/>
    <path id="パス_231" data-name="パス 231" d="M406.137,225.737v5.486h-5.1V260.17H394.62V231.223h-5.1v-5.486Z" transform="translate(-116.142 -67.308)" fill="#fff"/>
  </g>
</svg>
