<svg xmlns="http://www.w3.org/2000/svg" viewBox="0 0 700 184.47"><defs><style>.cls-1{fill:#fff;}.cls-2{fill:#0db397;}</style></defs><g id="Layer_2" data-name="Layer 2"><g id="Lockups"><g id="VCT_Challengers_Logo_H_Light"><path id="CHALLENGERS" class="cls-1" d="M282.94,105.38H266.25V74.44h16.69ZM384.62,77.76h16.45V89.34h31V74.44H367.93v65.21h16.69ZM391.28,143H334.79v14.88h28.73V146.3h4.41v11.57h28.73V143Zm46.38,0v11.56H432.3V143H417.76V123.61h13.7v-14.9h-13.7v-16H401.07v65.2h51L452,143Zm110.62-19.38H562v-14.9l-57.69-.07v15h5.25v17.7c0,2-1,3-3,3h-2.74c-2,0-3-1-3-3V129.72H484.15v13.37c0,10.37,5.12,15.5,15.49,15.5h10.73c10.37,0,15.5-5.13,15.5-15.5V112h5.72v45.84h31.23V143H548.28Zm86.83,2.78a5.59,5.59,0,0,1,2.56,5.14v10c0,2-.95,3-3,3h-1.55c-2,0-3-1-3-3V126.39H613.84v16.7c0,10.37,5.12,15.5,15.49,15.5h9.3c10.37,0,15.49-5.13,15.49-15.5V127.72c0-.46,0-.9,0-1.33ZM694,108.71H639.49L633.14,104a5.7,5.7,0,0,1-2.86-5.37V90.77c0-2,1-3,3-3h1.31c2,0,3,.95,3,3v12.36h16.33V89.22c0-10.37-5.12-15.5-15.49-15.5h-9.06c-10.37,0-15.49,5.13-15.49,15.5v13.23c0,6,1.54,9.41,6.67,13.11l10.12,7.51h23c-.75-3.41-2.57-5.82-6.23-8.46L644,112h24.79v11.58H694l6-7.46ZM211.07,91c0-2,1-3,3-3H216c2,0,3,1,3,3v17.75h16.45V89.22c0-10.37-5.12-15.5-15.49-15.5h-10c-10.37,0-15.49,5.13-15.49,15.5V107.4h16.69Zm390.37,27.41c4.53-1.67,7.15-5.24,7.15-12.4V89.93c0-10.37-5.13-15.49-15.5-15.49h-61.5v30.94h16.69v-16l14.3,0V77.76h5.6V89.32h20.74c2,0,3,1,3,3v16.81c0,2-.95,3-3,3h-4V92.65H568.18v65.22h16.69V126.29H589c2,0,3,.95,3,3v28.6h16.69V129.15C608.71,123.07,606.56,119.85,601.44,118.42Zm-100.6,8V91c0-2,1-3,3-3h2.38c2,0,3,1,3,3v12h16.45V89.22c0-10.37-5.13-15.5-15.5-15.5H499.64c-10.37,0-15.49,5.13-15.49,15.5v33.85h-5.72V74.44H464l.36,41.48-9.65-41.48h-17v65.21h14.28l-.21-27.07,10.48,45.29h16.22V126.39ZM351.48,74.44v65.21H334.79V77.76h-14.1l10.53,80.11H314.65l-1.31-12.15H302.85l-1.19,12.15H266.25V123.61h-8.34v34.26H241.22V123.61h-5.6v19.48c0,10.37-5.13,15.5-15.5,15.5H209.87c-10.37,0-15.49-5.13-15.49-15.5V110.73h16.69v30.58c0,2,1,3,3,3h2.14c2,0,3-1,3-3v-21h22.05V74.44h16.69v34.27H293l4.5-34.27Zm-39.57,56.73L308.09,94.7l-3.36,33.15H290.46L292.54,112h-9.6v42.51h4L290,131.17Z"/><g id="Branding"><path id="Valorant_Champions_Tour_Logomark" data-name="Valorant Champions Tour Logomark" class="cls-2" d="M44.53,34A2.26,2.26,0,0,1,44,32.6V.53A.53.53,0,0,1,45,.2L98.34,66.9a.53.53,0,0,1-.41.86H72.61a2.25,2.25,0,0,1-1.76-.85ZM91,44.85h25.32A2.22,2.22,0,0,0,118,44l8-10a2.26,2.26,0,0,0,.49-1.41V.53a.52.52,0,0,0-.93-.33L90.54,44A.53.53,0,0,0,91,44.85Zm-33.68,56V83.63a2.26,2.26,0,0,0-.49-1.41L27.6,45.69a2.26,2.26,0,0,0-1.76-.84H.53a.52.52,0,0,0-.41.85L36.65,91.37a1.4,1.4,0,0,1,0,1.73L.12,138.77a.52.52,0,0,0,.41.85H25.84a2.26,2.26,0,0,0,1.76-.84l29.18-36.52A2.23,2.23,0,0,0,57.27,100.86ZM133.9,93.1a1.4,1.4,0,0,1,0-1.73L170.43,45.7a.52.52,0,0,0-.41-.85H144.71a2.27,2.27,0,0,0-1.76.84L113.77,82.21a2.23,2.23,0,0,0-.49,1.4v17.23a2.21,2.21,0,0,0,.49,1.4L143,138.78a2.27,2.27,0,0,0,1.76.84H170a.52.52,0,0,0,.41-.85ZM126,150.46,99.7,117.56a2.25,2.25,0,0,0-1.76-.85H72.7a2.45,2.45,0,0,0-1.9.91L44.53,150.46a2.26,2.26,0,0,0-.49,1.41v32.07a.53.53,0,0,0,.94.33L84.39,135a1.12,1.12,0,0,1,1.76,0l39.43,49.28a.52.52,0,0,0,.93-.33V151.87A2.26,2.26,0,0,0,126,150.46Z"/><g id="Valorant_Wordmark" data-name="Valorant Wordmark"><path class="cls-2" d="M422.42,33.15a.67.67,0,0,1-.67-.67v-5a.67.67,0,0,1,.67-.67h22.75a1.76,1.76,0,0,1,1.39.67l4,5a.41.41,0,0,1-.33.67H438.51l0,28.7a.67.67,0,0,1-.67.67H432.5a.68.68,0,0,1-.68-.68l0-28.7h-9.37M201.69,61.86l27.5-34.41a.42.42,0,0,0-.33-.68H222a1.79,1.79,0,0,0-1.39.67L201.09,51.85V27.44a.67.67,0,0,0-.67-.67h-5.37a.67.67,0,0,0-.67.67V61.85a.68.68,0,0,0,.67.68h5.25a1.79,1.79,0,0,0,1.39-.67m17.9,0a1.79,1.79,0,0,1-1.39.67h-6.88a.42.42,0,0,1-.32-.68l27-33.74a3.52,3.52,0,0,1,2.77-1.34h4.4a.68.68,0,0,1,.68.67V61.85a.69.69,0,0,1-.68.68h-5.25a1.76,1.76,0,0,1-1.38-.67L229.05,50l-9.46,11.84m13.18-17.21,6.33,7.92V36.72Zm156.71,17.2a.42.42,0,0,1-.33.68h-6.87a1.79,1.79,0,0,1-1.39-.67L371.43,50,362,61.86a1.79,1.79,0,0,1-1.39.67h-5.25a.68.68,0,0,1-.67-.68V27.45a.67.67,0,0,1,.67-.68h5.26a1.79,1.79,0,0,1,1.39.67l27.5,34.41M361.37,36.72V52.57l6.34-7.92Zm-67-10.84a18.77,18.77,0,1,1-18.77,18.77A18.77,18.77,0,0,1,294.4,25.88m0,31.16a12.39,12.39,0,1,0-12.06-12.39A12.23,12.23,0,0,0,294.4,57m116-29.6V51.85L390.86,27.44a1.77,1.77,0,0,0-1.38-.67h-5.26a.67.67,0,0,0-.67.67V44a1.75,1.75,0,0,0,.39,1.11l5.58,7a.42.42,0,0,0,.74-.26V37.44l19.51,24.42a1.79,1.79,0,0,0,1.39.67h5.25a.68.68,0,0,0,.67-.68V27.44a.67.67,0,0,0-.67-.67H411a.67.67,0,0,0-.67.67m-63,7.46V27.44a.67.67,0,0,0-.67-.67H319.25a.67.67,0,0,0-.67.67V61.85a.68.68,0,0,0,.67.68h5.37a.68.68,0,0,0,.67-.68V33.16h15.4l-10.4,13a.69.69,0,0,0,0,.84l11.88,14.86a1.77,1.77,0,0,0,1.38.67h6.88a.42.42,0,0,0,.32-.68l-12.2-15.27L347,36a1.71,1.71,0,0,0,.39-1.11M254.13,62.53h15.93a1.79,1.79,0,0,0,1.39-.67l4-5a.41.41,0,0,0-.32-.67h-15V27.45a.67.67,0,0,0-.67-.68h-5.37a.67.67,0,0,0-.67.68v34.4a.68.68,0,0,0,.67.68"/><path class="cls-2" d="M445.06,59.54H444v-.36h2.6v.36h-1.08v3h-.43Zm2.11-.36h.69l1.08,2.71L450,59.18h.69v3.35h-.43v-3h0l-1.18,3h-.25l-1.18-3h0v3h-.43Z"/></g></g></g></g></g></svg>